<svg xmlns="http://www.w3.org/2000/svg" xmlns:xlink="http://www.w3.org/1999/xlink" width="62.641" height="62.641" viewBox="0 0 62.641 62.641">
  <defs>
    <filter id="Subtraction_2" x="0" y="0" width="62.641" height="62.641" filterUnits="userSpaceOnUse">
      <feOffset dy="3" input="SourceAlpha"/>
      <feGaussianBlur stdDeviation="3" result="blur"/>
      <feFlood flood-opacity="0.161"/>
      <feComposite operator="in" in2="blur"/>
      <feComposite in="SourceGraphic"/>
    </filter>
  </defs>
  <g id="behance" transform="translate(9 6)">
    <g transform="matrix(1, 0, 0, 1, -9, -6)" filter="url(#Subtraction_2)">
      <path id="Subtraction_2-2" data-name="Subtraction 2" d="M22.32,44.641A22.216,22.216,0,0,1,9.841,40.829a22.385,22.385,0,0,1-8.087-9.82A22.291,22.291,0,0,1,3.812,9.841a22.385,22.385,0,0,1,9.82-8.087A22.292,22.292,0,0,1,34.8,3.812a22.385,22.385,0,0,1,8.087,9.82A22.291,22.291,0,0,1,40.829,34.8a22.384,22.384,0,0,1-9.82,8.087A22.181,22.181,0,0,1,22.32,44.641Zm8-26.2a6.622,6.622,0,0,0-3.728,1,5.637,5.637,0,0,0-1.917,2.211,7.959,7.959,0,0,0-.81,3.24A7.07,7.07,0,0,0,24,26.5a6.132,6.132,0,0,0,1.46,3.029,6.362,6.362,0,0,0,4.867,1.8s.086,0,.228,0a7.8,7.8,0,0,0,3.162-.655,4.134,4.134,0,0,0,1.648-1.342,4.229,4.229,0,0,0,.713-2.483H33.12a1.594,1.594,0,0,1-.444,1.077,3.008,3.008,0,0,1-2.256.731s-.041,0-.1,0a3.3,3.3,0,0,1-1.621-.423,2.68,2.68,0,0,1-1.23-2.5h8.705a9.25,9.25,0,0,0-.013-1.976,6.594,6.594,0,0,0-1.433-3.594A5.57,5.57,0,0,0,30.322,18.438ZM9.116,14.159V30.972h8.8a6.76,6.76,0,0,0,2.856-.675,4.313,4.313,0,0,0,1.685-1.481,5.057,5.057,0,0,0,.746-2.81s0-.069,0-.166a5.805,5.805,0,0,0-.461-2.294,2.983,2.983,0,0,0-.944-1.2,2.912,2.912,0,0,0-1.747-.517,3.016,3.016,0,0,0,1.28-.47,2.666,2.666,0,0,0,.88-.958,3.671,3.671,0,0,0,.4-1.77,4.291,4.291,0,0,0-1.379-3.364,5.051,5.051,0,0,0-3.374-1.112H9.116Zm17.59.99v2.07h6.938v-2.07Zm-9.09,12.837H12.969v-4.5h4.892a1.772,1.772,0,0,1,1.164.508,2.454,2.454,0,0,1,.6,1.807C19.629,27.22,18.952,27.955,17.616,27.986Zm15.332-4.5H27.434v0a3.622,3.622,0,0,1,.5-1.29,2.778,2.778,0,0,1,.894-.889,2.948,2.948,0,0,1,1.556-.4,2.455,2.455,0,0,1,1.825.675,2.939,2.939,0,0,1,.736,1.91ZM17.559,20.9H12.969V17.146h4.892a1.106,1.106,0,0,1,.593.219,1.767,1.767,0,0,1,.593,1.532,2.36,2.36,0,0,1-.447,1.659A1.388,1.388,0,0,1,17.559,20.9Z" transform="translate(9 6)" fill="#fff"/>
    </g>
  </g>
</svg>
