<svg xmlns="http://www.w3.org/2000/svg" xmlns:xlink="http://www.w3.org/1999/xlink" width="62.641" height="62.641" viewBox="0 0 62.641 62.641">
  <defs>
    <filter id="Path_201" x="0" y="0" width="62.641" height="62.641" filterUnits="userSpaceOnUse">
      <feOffset dy="3" input="SourceAlpha"/>
      <feGaussianBlur stdDeviation="3" result="blur"/>
      <feFlood flood-opacity="0.161"/>
      <feComposite operator="in" in2="blur"/>
      <feComposite in="SourceGraphic"/>
    </filter>
  </defs>
  <g id="github-logo" transform="translate(9 6)">
    <g transform="matrix(1, 0, 0, 1, -9, -6)" filter="url(#Path_201)">
      <path id="Path_201-2" data-name="Path 201" d="M41.647,16.76a22.51,22.51,0,0,0-8.123-8.327,21.423,21.423,0,0,0-11.2-3.069,21.425,21.425,0,0,0-11.2,3.069A22.507,22.507,0,0,0,2.994,16.76,22.813,22.813,0,0,0,0,28.244,22.612,22.612,0,0,0,4.258,41.695a21.9,21.9,0,0,0,11,8.267,1.276,1.276,0,0,0,1.162-.208,1.179,1.179,0,0,0,.378-.893q0-.089-.015-1.609T16.768,44.6l-.668.119a8.322,8.322,0,0,1-1.613.1,12,12,0,0,1-2.02-.209,4.461,4.461,0,0,1-1.947-.893A3.778,3.778,0,0,1,9.241,41.89L8.951,41.2a7.48,7.48,0,0,0-.915-1.519,3.533,3.533,0,0,0-1.264-1.132l-.2-.149a2.155,2.155,0,0,1-.378-.358,1.64,1.64,0,0,1-.261-.417q-.087-.209.145-.343a1.844,1.844,0,0,1,.843-.133l.581.089a4.2,4.2,0,0,1,1.439.715,4.763,4.763,0,0,1,1.409,1.549,5.21,5.21,0,0,0,1.613,1.862,3.365,3.365,0,0,0,1.9.64,8.068,8.068,0,0,0,1.657-.148,5.682,5.682,0,0,0,1.308-.447,4.875,4.875,0,0,1,1.424-3.069,19.46,19.46,0,0,1-2.979-.536,11.7,11.7,0,0,1-2.732-1.162,7.873,7.873,0,0,1-2.34-2,9.685,9.685,0,0,1-1.526-3.128,15.223,15.223,0,0,1-.6-4.469,8.812,8.812,0,0,1,2.3-6.137,8.194,8.194,0,0,1,.2-6.077,3.983,3.983,0,0,1,2.5.4A17.28,17.28,0,0,1,15.5,16.387q.77.476,1.235.8a20.495,20.495,0,0,1,11.161,0l1.1-.715a15.478,15.478,0,0,1,2.673-1.311,3.724,3.724,0,0,1,2.355-.327,8.115,8.115,0,0,1,.232,6.077,8.813,8.813,0,0,1,2.3,6.137,15.394,15.394,0,0,1-.6,4.483,9.307,9.307,0,0,1-1.54,3.128,8.172,8.172,0,0,1-2.355,1.981,11.723,11.723,0,0,1-2.732,1.162,19.44,19.44,0,0,1-2.979.537,5.38,5.38,0,0,1,1.511,4.23v6.285a1.2,1.2,0,0,0,.364.893,1.238,1.238,0,0,0,1.148.208,21.9,21.9,0,0,0,11-8.267,22.617,22.617,0,0,0,4.257-13.451A22.832,22.832,0,0,0,41.647,16.76Z" transform="translate(9 0.64)" fill="#fff"/>
    </g>
  </g>
</svg>
